<svg xmlns="http://www.w3.org/2000/svg" version="1.1" xmlns:xlink="http://www.w3.org/1999/xlink" xmlns:svgjs="http://svgjs.dev/svgjs" width="1440" height="560" preserveAspectRatio="none" viewBox="0 0 1440 560">
    <g clip-path="url(&quot;#SvgjsClipPath1003&quot;)" fill="none">
        <rect width="1440" height="560" x="0" y="0" fill="rgba(40, 124, 90, 1)"></rect>
        <circle r="93.335" cx="8.97" cy="-1.38" stroke="#fbfbfb" stroke-opacity="0.25" stroke-width="2"></circle>
        <circle r="93.335" cx="410.18" cy="372.63" stroke="#fbfbfb" stroke-opacity="0.25" stroke-width="2"></circle>
        <circle r="93.335" cx="730.73" cy="708.24" stroke="#fbfbfb" stroke-opacity="0.25" stroke-width="2"></circle>
        <circle r="174.94" cx="65.86" cy="540.9" stroke="#fbfbfb" stroke-opacity="0.25" stroke-width="2"></circle>
        <circle r="79.715" cx="98.6" cy="394.19" stroke="#fbfbfb" stroke-opacity="0.25" stroke-width="2"></circle>
        <circle r="100.635" cx="1044.05" cy="537.51" stroke="#fbfbfb" stroke-opacity="0.25" stroke-width="2"></circle>
        <circle r="143.43" cx="637.8" cy="39.16" stroke="#fbfbfb" stroke-opacity="0.25" stroke-width="2"></circle>
        <circle r="149.985" cx="173.04" cy="95.24" stroke="#fbfbfb" stroke-opacity="0.25" stroke-width="2"></circle>
        <circle r="58.315" cx="1026" cy="432.5" stroke="#fbfbfb" stroke-opacity="0.25" stroke-width="2"></circle>
        <circle r="169.725" cx="1025.42" cy="25.78" stroke="#fbfbfb" stroke-opacity="0.25" stroke-width="2"></circle>
        <circle r="56.455" cx="87.24" cy="392.34" stroke="#fbfbfb" stroke-opacity="0.25" stroke-width="2"></circle>
        <circle r="110.225" cx="1237.68" cy="294.39" stroke="#fbfbfb" stroke-opacity="0.25" stroke-width="2"></circle>
        <circle r="183.145" cx="99.83" cy="249.26" stroke="#fbfbfb" stroke-opacity="0.25" stroke-width="2"></circle>
        <circle r="115.21" cx="1079.93" cy="497.39" stroke="#fbfbfb" stroke-opacity="0.25" stroke-width="2"></circle>
        <circle r="76.31" cx="592.24" cy="103.69" stroke="#fbfbfb" stroke-opacity="0.25" stroke-width="2"></circle>
        <circle r="179.73" cx="235.86" cy="499" stroke="#fbfbfb" stroke-opacity="0.25" stroke-width="2"></circle>
        <circle r="133.595" cx="383.06" cy="38.82" stroke="#fbfbfb" stroke-opacity="0.25" stroke-width="2"></circle>
        <circle r="114.055" cx="1184.37" cy="559.55" stroke="#fbfbfb" stroke-opacity="0.25" stroke-width="2"></circle>
        <circle r="150.355" cx="1421.33" cy="405.11" stroke="#fbfbfb" stroke-opacity="0.25" stroke-width="2"></circle>
        <circle r="85.975" cx="618.21" cy="68.32" stroke="#fbfbfb" stroke-opacity="0.25" stroke-width="2"></circle>
        <circle r="62.065" cx="599.1" cy="23.66" stroke="#fbfbfb" stroke-opacity="0.25" stroke-width="2"></circle>
        <circle r="56.11" cx="1256.06" cy="383" stroke="#fbfbfb" stroke-opacity="0.25" stroke-width="2"></circle>
        <circle r="87.03" cx="179.23" cy="46.68" stroke="#fbfbfb" stroke-opacity="0.25" stroke-width="2"></circle>
        <circle r="177.38" cx="200.68" cy="82.81" stroke="#fbfbfb" stroke-opacity="0.25" stroke-width="2"></circle>
        <circle r="186.55" cx="1030.13" cy="314.55" stroke="#fbfbfb" stroke-opacity="0.25" stroke-width="2"></circle>
        <circle r="116.815" cx="600.3" cy="371.67" stroke="#fbfbfb" stroke-opacity="0.25" stroke-width="2"></circle>
        <circle r="178.82" cx="521.89" cy="322.48" stroke="#fbfbfb" stroke-opacity="0.25" stroke-width="2"></circle>
        <circle r="87.205" cx="451.54" cy="412.62" stroke="#fbfbfb" stroke-opacity="0.25" stroke-width="2"></circle>
        <circle r="91.825" cx="1205.86" cy="156.37" stroke="#fbfbfb" stroke-opacity="0.25" stroke-width="2"></circle>
        <circle r="95.885" cx="835.48" cy="75.23" stroke="#fbfbfb" stroke-opacity="0.25" stroke-width="2"></circle>
        <circle r="65" cx="1253.44" cy="368.17" stroke="#fbfbfb" stroke-opacity="0.25" stroke-width="2"></circle>
        <circle r="85.385" cx="1350.93" cy="475.3" stroke="#fbfbfb" stroke-opacity="0.25" stroke-width="2"></circle>
        <circle r="56.68" cx="719.68" cy="335.85" stroke="#fbfbfb" stroke-opacity="0.25" stroke-width="2"></circle>
        <circle r="77.865" cx="559.3" cy="373.2" stroke="#fbfbfb" stroke-opacity="0.25" stroke-width="2"></circle>
        <circle r="47.95" cx="405.59" cy="382.24" stroke="#fbfbfb" stroke-opacity="0.25" stroke-width="2"></circle>
        <circle r="133.9" cx="1077.28" cy="255.49" stroke="#fbfbfb" stroke-opacity="0.25" stroke-width="2"></circle>
        <circle r="81.1" cx="150.36" cy="352.04" stroke="#fbfbfb" stroke-opacity="0.25" stroke-width="2"></circle>
        <circle r="160.68" cx="463.59" cy="528.53" stroke="#fbfbfb" stroke-opacity="0.25" stroke-width="2"></circle>
        <circle r="86.38" cx="135.55" cy="508.94" stroke="#fbfbfb" stroke-opacity="0.25" stroke-width="2"></circle>
        <circle r="88.79" cx="598.42" cy="400.35" stroke="#fbfbfb" stroke-opacity="0.25" stroke-width="2"></circle>
    </g>
    <defs>
        <clipPath id="SvgjsClipPath1003">
            <rect width="1440" height="560" x="0" y="0"></rect>
        </clipPath>
    </defs>
</svg>