<svg xmlns="http://www.w3.org/2000/svg" version="1.1" xmlns:xlink="http://www.w3.org/1999/xlink" xmlns:svgjs="http://svgjs.dev/svgjs" width="1440" height="560" preserveAspectRatio="none" viewBox="0 0 1440 560">
    <g mask="url(&quot;#SvgjsMask1027&quot;)" fill="none">
        <rect width="1440" height="560" x="0" y="0" fill="rgba(157, 97, 243, 1)"></rect>
        <path d="M633.239,299.12C668.706,296.212,697.78,274.72,716.511,244.463C736.517,212.146,748.449,173.608,732.215,139.242C713.622,99.883,676.746,66.768,633.239,68.184C591.338,69.548,565.773,109.025,544.83,145.342C523.913,181.614,501.536,224.076,522.405,260.376C543.312,296.741,591.432,302.547,633.239,299.12" fill="rgba(243, 243, 243, 0.4)" class="triangle-float1"></path>
        <path d="M520.735940755098 528.5678701339776L627.0129066021414 425.93739719493294 524.3824336630968 319.6604313478896 418.1054678160533 422.2909042869342z" fill="rgba(243, 243, 243, 0.4)" class="triangle-float3"></path>
        <path d="M541.6334789961114 601.4291545949084L529.5758015383356 486.7080167901655 414.8546637335928 498.7656942479414 426.91234119136857 613.4868320526842z" fill="rgba(243, 243, 243, 0.4)" class="triangle-float1"></path>
        <path d="M70.271,318.28C95.815,318.295,117.286,300.98,129.838,278.733C142.152,256.906,144.899,230.192,132.139,208.623C119.585,187.402,94.921,177.485,70.271,178.041C46.632,178.574,25.085,190.952,13.058,211.31C0.813,232.038,-0.525,257.432,10.83,278.661C22.866,301.165,44.75,318.265,70.271,318.28" fill="rgba(243, 243, 243, 0.4)" class="triangle-float2"></path>
        <path d="M400.6936949052334 177.70047422130455L469.54855836465515 139.53360016920254 377.8708155567913 55.33474200612085z" fill="rgba(243, 243, 243, 0.4)" class="triangle-float2"></path>
        <path d="M1371.462604669468 318.2974742567773L1500.8914804596448 213.4880372075125 1396.0820434103798 84.05916141733579 1266.653167620203 188.86859846660062z" fill="rgba(243, 243, 243, 0.4)" class="triangle-float3"></path>
        <path d="M221.33 300.44 a118.73 118.73 0 1 0 237.46 0 a118.73 118.73 0 1 0 -237.46 0z" fill="rgba(243, 243, 243, 0.4)" class="triangle-float2"></path>
        <path d="M1244.604079638051 595.5793565213123L1317.7444137763314 531.9994340554578 1254.1644913104767 458.85909991717733 1181.0241571721963 522.4390223830319z" fill="rgba(243, 243, 243, 0.4)" class="triangle-float1"></path>
        <path d="M1153.84 147.48 a97.52 97.52 0 1 0 195.04 0 a97.52 97.52 0 1 0 -195.04 0z" fill="rgba(243, 243, 243, 0.4)" class="triangle-float3"></path>
    </g>
    <defs>
        <mask id="SvgjsMask1027">
            <rect width="1440" height="560" fill="#ffffff"></rect>
        </mask>
    </defs>
</svg>